<mxfile host="app.diagrams.net" modified="2024-06-13T13:43:56.242Z" agent="Mozilla/5.0 (Macintosh; Intel Mac OS X 10_15_7) AppleWebKit/605.1.15 (KHTML, like Gecko) Version/17.5 Safari/605.1.15" version="24.5.4" etag="VpXN0QcHhjt7ynvkJ_Sw" type="github">
  <diagram name="第 1 页" id="Z8sUpeqoQ9u6X9yO8Bre">
    <mxGraphModel>
      <root>
        <mxCell id="0" />
        <mxCell id="1" parent="0" />
      </root>
    </mxGraphModel>
  </diagram>
</mxfile>
